<svg width="104" height="24" viewBox="0 0 104 24" fill="none" xmlns="http://www.w3.org/2000/svg">
<path d="M24.2525 16.1853C24.2436 16.2032 24.2324 16.2212 24.2256 16.2413C23.4992 18.3602 22.4588 19.9208 20.5238 21.1315C18.1404 22.6226 14.73 23.2751 11.9475 22.9836C9.06405 22.6809 6.24788 21.3849 4.22768 19.3086C3.59538 18.6607 3.05277 17.9342 2.59761 17.1539C1.86666 15.9005 1.35321 14.4835 1.16038 13.0373C0.893564 11.026 1.17608 9.09329 1.96084 7.23677C2.62677 5.66276 3.56848 4.48338 4.7232 3.25915C4.82859 3.14704 5.04159 2.97439 5.16491 2.87125C5.44742 2.63807 5.80169 2.37797 6.10662 2.16945C8.5775 0.474366 11.7345 -0.344029 14.7211 0.135796C14.7278 0.185124 14.6583 0.160466 14.6246 0.162708C14.4027 0.171677 14.1829 0.167187 13.961 0.191851C10.5259 0.550599 7.02592 3.20085 5.63128 6.3242C4.83755 8.10001 4.59764 10.2099 4.94069 12.1247C5.18957 13.5104 5.77254 14.923 6.57075 16.0754C8.68737 19.1405 12.3197 20.719 16.017 20.5777C16.1022 20.5755 16.183 20.5531 16.239 20.5508C16.257 20.5508 16.2771 20.5508 16.2951 20.5508C16.5798 20.5306 16.8691 20.506 17.1516 20.4678C17.1605 20.4678 17.1695 20.4678 17.1785 20.4678C19.9341 20.0867 22.7615 18.5889 24.2189 16.1696C24.2705 16.0844 24.2436 16.1494 24.2503 16.1875L24.2525 16.1853Z" fill="#B1C841"/>
<path d="M20.5246 21.1295C20.2219 21.4344 19.8385 21.7057 19.473 21.9412C16.7443 23.7035 12.6905 24.2618 9.53124 23.6161C7.09624 23.1161 4.80697 21.8649 3.09395 20.0802C1.78676 18.7169 0.871952 17.1317 0.360736 15.3021C0.360736 15.2931 0.360736 15.2819 0.360736 15.2729C0.356251 14.9792 0.136525 14.32 0.0871968 13.959C0.0445955 13.6474 0.0132039 13.2931 0.00199305 12.9814C-0.000249131 12.9344 0.00199305 12.8895 0.00199305 12.8424C-0.00249131 12.7415 0.00199305 12.6384 0.00199305 12.5375C0.00199305 12.4007 -0.00249131 12.2617 0.00199305 12.1227C0.0154461 11.5846 0.0513198 11.0778 0.141007 10.5487C0.143249 10.5307 0.136523 10.5106 0.141007 10.4926C0.596169 7.88049 2.08049 5.42531 4.09172 3.72574C4.10069 3.71677 4.10966 3.7078 4.11862 3.69659L4.72625 3.25488C3.57152 4.47687 2.62982 5.6585 1.9639 7.23251C1.17914 9.08903 0.896619 11.0218 1.16344 13.033C1.35627 14.4792 1.86748 15.8963 2.60067 17.1496C3.05583 17.9277 3.59844 18.6541 4.23073 19.3044C6.25093 21.3806 9.0671 22.6744 11.9505 22.9793C14.7331 23.2708 18.1434 22.6206 20.5269 21.1273L20.5246 21.1295Z" fill="#94BA3D"/>
<path d="M7.89968 10.5505C7.89968 10.5303 7.89744 10.5124 7.89968 10.4945C7.91313 10.4989 7.9378 10.49 7.95573 10.4945C7.96246 10.5528 7.95797 10.5572 7.89968 10.5505Z" fill="#179DD0"/>
<path d="M26.2681 12.1256C27.2345 11.6076 28.0551 11.3184 28.6202 10.2937C28.6471 10.2444 28.6897 10.0897 28.6987 10.0807C28.7457 10.0336 28.7457 10.0987 28.757 10.1188C28.9341 10.4686 29.0238 11.1502 29.0305 11.5426C29.0462 12.3431 28.9005 12.9821 28.5619 13.6973C28.4834 13.7153 28.4363 13.7781 28.3601 13.8139C27.9901 13.9866 27.6045 14.1996 27.2278 14.3947C26.4229 14.8162 25.5327 15.3297 24.7031 15.6817C24.6538 15.7019 24.6112 15.722 24.5551 15.7131C25.1381 14.8252 25.9699 13.9687 26.7794 13.2825C26.9856 13.1077 27.2547 12.9417 27.4475 12.7624C27.5619 12.657 27.5125 12.648 27.3915 12.7063C26.3937 13.1749 24.8914 14.8521 24.3309 15.805C24.3017 15.8566 24.23 16.083 24.1986 15.9485C24.1695 15.8252 24.156 15.6749 24.1426 15.5471C23.9408 13.5426 24.6605 12.9866 26.2704 12.1211L26.2681 12.1256Z" fill="#C8DA34"/>
<path d="M28.5629 13.6987C28.3028 14.2481 27.9508 14.7391 27.4867 15.136C26.6077 15.8849 25.3746 16.2571 24.2266 16.2414C24.2333 16.2234 24.2445 16.2032 24.2535 16.1853C24.3185 16.0575 24.471 15.849 24.5584 15.7167C24.6145 15.7257 24.6571 15.7077 24.7064 15.6853C25.536 15.3333 26.4261 14.8198 27.2311 14.3983C27.6055 14.201 27.9934 13.9902 28.3634 13.8176C28.4396 13.7817 28.4844 13.7189 28.5652 13.701L28.5629 13.6987Z" fill="#C3D730"/>
<path d="M23.9782 11.8751C23.8347 9.77193 22.6105 7.86832 20.9199 6.65979C20.7158 6.51405 20.3504 6.24499 20.1172 6.19342C19.171 5.98266 17.2158 6.33916 16.4916 7.02751C16.3391 7.17325 16.1956 7.37281 16.2158 7.59478C16.2651 8.10151 17.2584 8.34367 17.653 8.4782C17.884 8.46923 18.5566 8.76968 18.7674 8.89749C19.1553 9.13516 19.6643 9.69121 19.3952 10.1621C19.6127 10.05 19.9871 10.05 20.2158 10.1307C20.745 10.319 20.9042 10.9962 20.7002 11.4805C20.5679 11.7921 20.0028 12.2675 20.0028 12.5253C20.0028 12.6621 20.2988 13.0186 20.3862 13.1643C21.2046 14.5366 21.1867 16.1464 19.9647 17.263C19.4042 17.7743 18.727 18.059 18.1194 18.4828C17.3974 18.985 17.023 19.5433 17.1889 20.4671C17.1799 20.4671 17.171 20.4671 17.162 20.4671C16.4423 19.0119 18.3302 18.1756 19.2696 17.4783C20.8145 16.3303 21.1598 15.3213 20.2046 13.5433C20.0634 13.2809 19.5723 12.7361 19.5656 12.4962C19.5589 12.1823 20.1329 11.8213 20.2786 11.5006C20.375 11.2899 20.4221 10.8885 20.2943 10.6912C20.032 10.2876 19.4782 10.5141 19.1217 10.6329C19.1037 10.6172 19.2091 10.2988 19.2315 10.2742C19.2225 10.2652 19.2113 10.2585 19.2046 10.245C19.1486 10.2921 19.1441 10.2518 19.1127 10.2114C19.0163 10.0701 19.0118 9.89077 18.9557 9.73382C18.8728 9.49839 18.7517 9.33695 18.5678 9.16879C18.171 8.8773 17.8324 8.7921 17.3795 8.64412C17.0566 8.53874 16.5073 8.42438 16.2472 8.22931C16.0723 8.12617 15.866 7.96922 15.8167 7.7607C15.801 7.69344 15.8212 7.53648 15.7629 7.50958C15.7292 7.60823 15.6553 7.69568 15.6104 7.78537C15.4602 8.09479 15.3436 8.43784 15.3077 8.78089C15.2786 9.05444 15.3032 9.22933 15.3638 9.49839C15.505 10.1396 15.8862 10.6486 15.4961 11.3011C15.3279 11.5859 14.8458 11.9603 14.8929 12.328C14.9153 12.4962 15.4579 12.5881 15.5162 12.7854C15.5813 12.9962 15.449 13.2966 15.4781 13.402C15.5028 13.4939 15.6934 13.5769 15.7786 13.6038L15.6104 14.1419C15.6261 14.1419 15.875 14.2406 15.8974 14.2563C16.1866 14.4357 15.7539 15.0949 16.1441 15.3079C16.3055 15.3953 16.4333 15.3908 16.6059 15.3572H16.6082C16.8212 15.3168 17.014 15.2496 17.2001 15.1778C17.2517 15.1576 17.2988 15.1375 17.3503 15.115C17.5252 15.041 17.6956 14.9671 17.8728 14.9065C17.9019 14.8953 17.9311 14.8863 17.9625 14.8774C18.032 14.8549 18.1037 14.837 18.1755 14.8213C18.2069 14.8146 18.2382 14.8079 18.2696 14.8034C18.301 14.7989 18.3347 14.7944 18.366 14.7899C18.4064 14.7854 18.4445 14.7832 18.4871 14.781C18.514 14.781 18.5409 14.7787 18.5678 14.7787C18.6665 14.7787 18.7674 14.7854 18.875 14.8034C19.6396 14.9267 19.5992 15.5276 19.3997 16.1307C18.9333 17.5299 17.4041 18.1465 16.653 19.3371C16.4064 19.7294 16.3571 20.0949 16.3055 20.5501C16.2875 20.5501 16.2674 20.5501 16.2494 20.5501C16.2292 20.5546 16.2113 20.5568 16.1979 20.5568C16.1485 20.5635 16.0902 20.577 16.0297 20.577C15.9961 20.3729 16.292 20.2564 16.153 20.0546C16.0925 19.9671 16.0387 20.0613 16.1014 19.8617C16.5163 18.5501 17.7988 17.8886 18.6418 16.9334C19.1374 16.3729 19.3885 15.8191 19.0432 15.0814C18.2225 14.8168 16.9983 15.9783 16.1149 15.633C15.8862 15.5971 15.6956 15.3684 15.6485 15.1464C15.6216 15.0209 15.6328 14.5724 15.6059 14.5276C15.5745 14.476 15.2404 14.3662 15.2113 14.2585C15.1642 14.0993 15.3032 13.9043 15.3436 13.754L15.0476 13.5433C15.0476 13.3908 15.1687 13.1845 15.1709 13.0455C15.1754 12.7271 14.4938 12.6217 14.4602 12.3616C14.3772 11.7338 15.514 11.2764 15.2696 10.3908C15.0342 9.53426 14.7292 9.31004 14.9669 8.30779C15.3683 6.61719 17.3279 5.69341 18.9356 5.63512L18.6239 5.51852C18.1643 5.37951 17.6979 5.27861 17.2225 5.22256C14.9781 4.94901 12.7808 5.67323 11.0902 7.14186C10.0812 8.01855 9.25608 9.14412 8.82559 10.4177C8.80989 10.4379 8.78971 10.4558 8.76953 10.4737C8.79195 10.3616 8.79644 10.2249 8.82559 10.115C9.24487 8.44905 10.3458 6.92885 11.727 5.93108C12.0005 5.73377 12.3099 5.58803 12.5812 5.39072C12.7987 5.34363 13.0499 5.18893 13.2741 5.09924C14.005 4.80776 14.7763 4.60148 15.5656 4.53197C15.9535 4.49834 16.3122 4.50955 16.6979 4.53197C17.9445 4.60148 19.1418 4.9109 20.2338 5.5275C21.2854 6.11943 22.3437 7.11719 22.967 8.15084C23.4132 8.88627 23.8033 9.86835 23.9334 10.7204C23.9939 11.1128 23.9939 11.4962 23.9894 11.8796L23.9782 11.8751Z" fill="#2861AD"/>
<path d="M26.2692 12.124C24.6593 12.9873 23.9419 13.5433 24.1414 15.5501C23.9598 15.0321 23.8723 14.411 23.9934 13.8707C24.2356 12.8056 25.3567 12.4469 26.267 12.1263L26.2692 12.124Z" fill="#88AF3F"/>
<path d="M13.4229 17.3182C14.1964 17.6343 15.1269 17.8316 15.3556 18.7823C15.091 18.7195 14.9341 18.4168 14.7502 18.2419C14.3197 17.8361 13.7368 17.6747 13.2031 17.4549C13.2749 17.446 13.4341 17.3877 13.4251 17.3159L13.4229 17.3182Z" fill="#2861AD"/>
<path d="M27.4844 15.1364C27.9507 14.7395 28.3005 14.2485 28.5606 13.6992C28.8992 12.9839 29.0449 12.3449 29.0292 11.5444C29.0561 11.6296 29.0786 11.7731 29.0853 11.8628C29.157 13.161 28.7041 14.3449 27.6077 15.0803C27.5673 15.1073 27.5359 15.1342 27.4844 15.1364Z" fill="#88AF3F"/>
<path d="M14.1003 14.9942C13.8133 15.436 12.829 15.1736 12.3671 15.3597C11.9523 15.5279 12.0622 15.983 12.181 16.3216C12.3828 16.8911 12.903 17.1041 13.4232 17.3149C13.4344 17.3866 13.273 17.4449 13.2035 17.4539C12.9254 17.3418 12.6653 17.2745 12.4299 17.0683C12.3783 17.0391 12.255 16.9651 12.2214 16.9292C11.8873 16.5772 11.6564 15.8844 11.829 15.4023C11.9434 15.0839 12.107 15.0839 12.403 15.0503C12.764 15.0099 13.1676 15.066 13.5174 14.992C14.0375 14.8844 13.7505 14.6086 13.8111 14.2924C13.8268 14.2095 13.9523 14.1131 13.9456 14.0727C13.9389 14.0234 13.7887 13.9516 13.7842 13.8776C13.7797 13.8014 13.9456 13.5391 13.9209 13.5032C13.9187 13.501 13.9299 13.4718 13.9142 13.4539C13.894 13.4337 13.8537 13.4337 13.8313 13.3866C13.7349 13.1893 13.9815 13.0234 13.9456 12.8866C13.9411 12.8754 13.8201 12.7476 13.8021 12.7364C13.7819 12.7207 13.7595 12.7319 13.755 12.7296C13.6698 12.6691 13.6138 12.6422 13.5331 12.5637C13.042 12.2947 13.2819 11.696 13.1945 11.2319C13.1362 10.9157 12.9456 10.5659 12.7034 10.3552C12.533 10.2072 12.255 10.0637 12.0398 9.99644C11.0801 9.69374 9.64736 9.97177 8.97246 10.7565C8.8469 10.9068 8.7617 11.0861 8.64062 11.2386C8.66977 10.9561 8.69892 10.7431 8.75049 10.465C8.77067 10.4471 8.78861 10.4292 8.80654 10.409C9.67427 9.46728 11.1362 9.34845 12.2864 9.77222C12.69 9.9202 12.8268 9.99419 13.116 10.2969C13.4366 10.6332 13.5039 10.8171 13.5308 11.3059C13.5532 11.6826 13.4165 12.1691 13.7528 12.4359C14.0151 12.6444 14.2775 12.5772 14.1497 13.0323C14.1093 13.1826 13.9972 13.2319 14.1115 13.3732C14.1878 13.4673 14.2349 13.418 14.2169 13.5974C14.2079 13.6938 14.1743 13.7745 14.0779 13.8037C14.0779 13.9135 14.264 13.9158 14.273 14.0099C14.2819 14.1019 14.1586 14.214 14.1407 14.3194C14.0981 14.5525 14.2438 14.7566 14.0914 14.9875L14.1003 14.9942Z" fill="#2861AD"/>
<path d="M13.9152 13.4558C13.9309 13.4737 13.9197 13.5029 13.9219 13.5051C13.8748 13.5006 13.7358 13.3728 13.7291 13.3257C13.7022 13.1665 13.8995 13.0253 13.895 12.884C13.8928 12.8145 13.7762 12.8011 13.7582 12.7338C13.7627 12.736 13.7851 12.7271 13.8053 12.7405C13.821 12.7517 13.9443 12.8795 13.9488 12.8907C13.9869 13.0253 13.738 13.1912 13.8345 13.3908C13.8569 13.4378 13.8995 13.4378 13.9174 13.458L13.9152 13.4558Z" fill="#2861AD"/>
<path d="M9.58327 14.7201L9.19761 14.5004C9.13931 14.3681 9.10792 14.2694 9.05859 14.1416C9.16173 14.2896 9.59672 14.5452 9.63708 14.682C9.65277 14.7358 9.61914 14.7223 9.58327 14.7223V14.7201Z" fill="#1694CC"/>
<path d="M9.58322 14.7207C9.4599 14.723 9.36572 14.6355 9.25137 14.6108C9.23567 14.5772 9.21549 14.5458 9.19531 14.501L9.58097 14.7207H9.58322Z" fill="#1656A5"/>
<path d="M24.5827 10.5225C24.502 11.6615 24.2374 13.0763 23.6813 14.0808C23.6567 14.1279 23.6163 14.231 23.5625 14.2377C23.7688 13.6615 23.919 13.0516 23.9751 12.4418C23.993 12.2534 23.9751 12.0539 23.9751 11.8745C23.9796 11.4911 23.9818 11.1077 23.919 10.7153L24.5827 10.5225Z" fill="#1379BD"/>
<path d="M24.3635 7.75966C24.0653 6.59373 23.5249 5.57802 22.7895 4.63631C22.1819 3.86052 21.6258 3.37172 20.8276 2.81342C20.5406 2.61387 20.3657 2.49279 20.0541 2.3179C19.7738 2.15871 19.5765 2.06453 19.2805 1.93C18.6751 1.65421 18.1168 1.4457 17.4576 1.29547C14.1033 0.53313 10.5427 1.59368 8.2871 4.1946C7.86557 4.68115 7.57857 5.10044 7.26467 5.65874C7.11669 5.92332 6.97319 6.17445 6.84987 6.46144C6.74449 6.70584 6.65479 6.95248 6.57408 7.20809C6.30726 8.03993 6.17722 8.88299 6.16152 9.75968L6.10547 9.77762V9.80453L6.16152 9.82246C6.18619 10.2597 6.20188 10.6992 6.27139 11.1319C6.42161 12.0803 6.73552 12.9167 7.18171 13.7575C7.68396 14.7037 8.24226 15.4122 9.03375 16.1319C9.8925 16.9145 10.9037 17.5378 12.0046 17.9257L11.1593 17.2485C10.693 16.8068 10.249 16.3337 9.88802 15.7979C9.63689 15.4257 9.43958 15.0198 9.25348 14.6118C9.23778 14.5781 9.2176 14.5467 9.19742 14.5019C9.13913 14.3696 9.10774 14.2709 9.05841 14.1431C8.93509 13.818 8.85662 13.6073 8.78263 13.2597C8.62792 12.54 8.57186 11.9749 8.64361 11.2418C8.67276 10.9592 8.70191 10.7462 8.75348 10.4682C8.7759 10.3561 8.78038 10.2193 8.80953 10.1095C9.22882 8.44352 10.3297 6.92333 11.7109 5.92556C11.9845 5.72825 12.2939 5.58251 12.5652 5.3852C12.7827 5.33811 13.0338 5.1834 13.258 5.09372C13.989 4.80223 14.7603 4.59595 15.5495 4.52645C15.9374 4.49281 16.2962 4.50402 16.6818 4.52645C17.9285 4.59595 19.1258 4.90537 20.2177 5.52197C21.2693 6.11391 22.3276 7.11167 22.9509 8.14531C23.3971 8.88075 23.7873 9.86282 23.9173 10.7149L24.581 10.522C24.6505 9.55564 24.6012 8.70137 24.3613 7.75966H24.3635ZM7.89921 10.5512C7.89921 10.531 7.89697 10.5131 7.89921 10.4951C7.91266 10.4996 7.93733 10.4906 7.95526 10.4951C7.96199 10.5534 7.95751 10.5579 7.89921 10.5512Z" fill="#1379BD"/>
<path d="M56.6442 6.6701C57.2742 6.64992 57.8482 6.79117 58.4402 6.97727C58.5231 6.52884 58.6576 5.98623 59.0724 5.73511C59.1733 5.67457 59.4962 5.54004 59.5949 5.54004H60.5949V6.82256C60.2832 6.79342 59.9985 6.71718 59.7047 6.88086C59.5074 6.99073 59.198 7.48625 59.2855 7.69253C59.3482 7.83603 59.5769 8.07594 59.6711 8.28447C59.7608 8.48178 59.8393 8.71496 59.8751 8.92573C60.2115 10.9257 58.5635 12.1836 56.6688 12.0558C56.1733 12.0222 55.7675 11.7307 55.3594 12.1836C55.1935 12.3675 55.1419 12.7329 55.263 12.9482C55.4917 13.354 57.0792 13.3025 57.5411 13.3383C58.0029 13.3742 58.6689 13.5199 59.1061 13.4908C59.1554 13.4886 59.216 13.4998 59.2608 13.4908C59.4245 13.6478 59.6465 13.6702 59.8527 13.798C60.216 14.0244 60.5343 14.4639 60.6465 14.8765C60.6599 14.9258 60.6935 14.9998 60.698 15.0312C60.7272 15.2599 60.7249 15.8249 60.698 16.0581C60.698 16.076 60.7003 16.0917 60.698 16.1097C60.6734 16.2666 60.503 16.6254 60.411 16.7733C59.9559 17.5065 59.1644 17.7599 58.3886 18.0088C58.3706 18.0088 58.355 18.0088 58.337 18.0088C57.8729 18.0245 57.4402 18.103 56.9514 18.1119C56.8662 18.1119 56.7809 18.1119 56.6957 18.1119C55.3998 18.0962 53.5298 17.8743 53.3078 16.2644C53.2944 16.1612 53.2921 15.9034 53.3078 15.8025C53.4087 15.1523 53.9132 14.6433 54.5388 14.4684L54.0522 14.1096C53.1935 13.2038 53.7585 11.8652 54.846 11.493C54.8594 11.4213 54.8572 11.428 54.8123 11.3876C54.541 11.132 54.254 10.9571 54.0657 10.6051C53.9379 10.3674 53.7899 9.85847 53.7675 9.59613C53.7585 9.50196 53.763 9.38537 53.7675 9.28896C53.828 7.69477 55.1173 6.71943 56.6419 6.67234L56.6442 6.6701ZM56.6307 7.81136C55.2921 8.02437 55.2809 10.7598 56.5791 10.9684C57.8706 11.1746 58.1845 10.067 58.0747 9.01093C57.9895 8.19702 57.4872 7.67459 56.6307 7.81136ZM55.7585 14.7374C54.8886 15.0043 54.6442 16.2823 55.5029 16.715C56.1599 17.0469 57.9043 17.0289 58.5455 16.6523C59.0254 16.372 59.2496 15.6612 58.855 15.2105C58.355 14.641 56.4715 14.8608 55.7585 14.7352V14.7374Z" fill="#1656A5"/>
<path d="M32.477 4.00113C33.3851 3.9249 34.6273 3.97423 35.5555 4.00113C35.8806 4.0101 36.208 4.01458 36.5309 4.0527C36.6452 4.06615 36.7775 4.08409 36.8896 4.10427C39.0062 4.49441 39.8695 6.49891 39.3493 8.48772C38.8089 10.5483 37.0197 10.759 35.1968 10.7747C34.9748 10.7747 34.7506 10.7635 34.5286 10.7747C34.4434 10.7792 34.356 10.7703 34.2708 10.7747C34.2685 10.8779 34.2752 10.981 34.2708 11.0819C34.2282 12.2568 34.2842 13.4452 34.2708 14.6223C34.2708 14.7927 34.3022 14.9833 34.2192 15.1358C34.1295 15.1044 32.4008 15.0842 32.3201 15.1358V11.5438C32.3201 9.0393 32.3201 6.53479 32.3201 4.03028C32.329 3.97199 32.4277 4.00338 32.4748 4.00113H32.477ZM34.2214 9.28594H35.838C36.051 9.28594 36.6497 9.07966 36.8358 8.94962C37.7753 8.28818 37.6183 5.99891 36.495 5.55048C36.4412 5.52806 36.125 5.43837 36.0959 5.43837H34.2237V9.28594H34.2214Z" fill="#1656A5"/>
<path d="M52.0762 12.7753C52.0628 12.8314 52.0404 12.9323 52.0247 12.9816C51.7623 13.8717 51.1076 14.7417 50.2287 15.0848C50.1592 15.1117 50.0336 15.1834 50.0224 15.1879C49.9125 15.2193 49.5067 15.2798 49.3811 15.2888C47.2757 15.457 45.9215 14.4435 45.5582 12.365C45.5358 12.2305 45.5224 12.0892 45.5067 11.9547C45.2241 9.29322 45.9125 6.43444 49.1749 6.66987C52.1973 6.88736 52.6278 10.4009 52.074 12.7753H52.0762ZM48.5201 8.01518C48.074 8.09141 47.7488 8.60487 47.6076 9.00173C47.1771 10.2192 47.0022 14.8314 49.3385 13.9143C50.426 13.4883 50.3946 11.1027 50.3273 10.134C50.2511 9.0421 49.8901 7.78423 48.5179 8.01518H48.5201Z" fill="#1656A5"/>
<path d="M61.2148 11.4919C61.1027 8.85062 62.1857 6.16898 65.3337 6.73176C67.4481 7.11069 67.966 9.38874 67.8875 11.2341H63.013C63.013 11.2341 63.0781 12.1197 63.0893 12.1982C63.1319 12.5233 63.1969 12.8551 63.3404 13.1534C63.8853 14.2789 65.4884 14.2072 65.9817 13.0995C66.0422 12.965 66.1521 12.4964 66.2261 12.4717L67.836 12.6713C67.9077 12.6803 67.401 13.835 67.336 13.9359C67.1095 14.2879 66.8135 14.5928 66.4593 14.8193C65.8494 15.2072 65.096 15.3014 64.3875 15.2588C64.0288 15.2363 63.67 15.178 63.3225 15.0861C62.9749 14.9942 62.7081 14.77 62.448 14.5457C61.5758 13.7812 61.2641 12.6175 61.2171 11.4919H61.2148ZM66.0916 10.0547C66.1028 9.06811 65.7866 7.87752 64.5803 7.8977C63.4391 7.91788 63.1543 9.13986 63.0646 10.0547H66.0916Z" fill="#1656A5"/>
<path d="M76.5469 11.4919C76.4348 8.85062 77.5177 6.16898 80.6657 6.73176C82.7801 7.11069 83.2981 9.38874 83.2196 11.2341H78.3451C78.2801 11.2341 78.5334 12.8013 78.585 12.9426C78.7958 13.5368 79.3339 14.0256 80.002 13.9897C80.5805 13.9583 81.085 13.6152 81.316 13.0995C81.3765 12.965 81.4864 12.4964 81.5604 12.4717L83.1702 12.6713C83.2442 12.6803 82.7263 13.8507 82.659 13.9538C82.4281 14.3103 82.1232 14.6153 81.7599 14.8395C80.9684 15.3283 79.9594 15.3776 79.0648 15.2005C78.1881 15.0256 77.3675 14.2812 76.9908 13.4807C76.6993 12.8619 76.5783 12.1713 76.5491 11.4897L76.5469 11.4919ZM81.4214 10.0547C81.4326 9.06811 81.1164 7.87752 79.9101 7.8977C78.7689 7.91788 78.4841 9.13986 78.3944 10.0547H81.4214Z" fill="#1656A5"/>
<path d="M75.3773 15.0839H73.5813V9.51655C73.5813 9.38426 73.4916 8.92685 73.4557 8.7699C73.3862 8.4672 73.319 8.26765 73.0028 8.14433C72.5342 7.96047 71.8459 8.07707 71.5297 8.48963C71.3705 8.69815 71.171 9.36407 71.171 9.61744V15.0816H69.375V6.87077H71.0163V8.00083L71.3548 7.44029C72.1508 6.31696 74.4176 6.39544 75.0612 7.62415C75.3212 8.11967 75.3571 9.04792 75.3795 9.6152C75.4513 11.4201 75.3212 13.2722 75.3795 15.0816L75.3773 15.0839Z" fill="#1656A5"/>
<path d="M89.5702 7.40567C89.7451 7.58505 89.9648 7.9281 90.0769 8.1568C90.1307 8.26443 90.3572 8.7308 90.2563 8.80031L88.902 9.12991C88.7182 8.84515 88.6464 8.5021 88.3818 8.26219C87.3728 7.34962 85.8504 8.35636 86.5163 9.45951C86.7697 9.87879 88.4177 10.2667 88.9558 10.5111C89.846 10.9124 90.5298 11.3855 90.6128 12.4461C90.8931 15.9685 84.5814 16.417 84.3594 12.8878C84.5567 12.8385 85.8213 12.5582 85.8908 12.6277C85.9984 13.7465 87.198 14.3228 88.2025 13.8833C88.8998 13.5784 89.0702 12.6232 88.4244 12.1725C87.2518 11.3564 85.1374 11.5918 84.6845 9.75548C84.0006 6.98415 87.8953 5.68592 89.5702 7.41015V7.40567Z" fill="#1656A5"/>
<path d="M100.367 8.7713L98.959 9.12556C98.9051 9.1121 98.7258 8.6547 98.663 8.55156C97.9007 7.32285 95.9522 8.00671 96.5082 9.32063C96.6226 9.59193 96.8513 9.68835 97.1002 9.80718C98.3894 10.4171 100.513 10.565 100.674 12.3902C100.887 14.7781 98.3625 15.5965 96.4051 15.1705C95.2571 14.9216 94.4611 14 94.4141 12.8251C94.6607 12.8722 95.8266 12.5202 95.9477 12.6256C96.1047 13.657 97.0172 14.222 98.0284 13.9507C98.6585 13.7826 99.1159 13.1458 98.8043 12.5135C98.4702 11.8341 96.5935 11.5292 95.867 11.1413C93.7414 10.0067 94.6831 6.85648 97.1069 6.66589C98.728 6.53809 99.9343 7.14572 100.367 8.7713Z" fill="#1656A5"/>
<path d="M42.4772 7.43861C42.4795 7.67852 42.4593 7.89378 42.4234 8.12921L42.4772 8.618C42.8113 7.55296 43.6252 6.5552 44.8606 6.71888C44.9167 6.72784 44.8876 6.95655 44.8898 7.0283C44.901 7.38256 44.8988 7.75028 44.8898 8.10678C44.8876 8.24356 44.892 8.38032 44.8898 8.5171C44.4055 8.49243 43.9077 8.51934 43.4884 8.78168C42.7194 9.26151 42.6633 10.3131 42.6319 11.1337C42.5871 12.3086 42.6319 13.5441 42.6319 14.7257V15.136C42.4032 15.1338 40.9593 15.0889 40.8875 15.136L40.8359 6.87359H42.4279C42.4346 6.92291 42.4189 6.98345 42.4279 7.0283C42.4548 7.16731 42.4772 7.29511 42.4795 7.43861H42.4772Z" fill="#1656A5"/>
<path d="M93.2303 7.95264H91.6406V15.085H93.2303V7.95264Z" fill="#1656A5"/>
<path d="M98.2612 19.2415H96.0033C96.0459 19.9501 96.5952 20.2483 97.2567 20.1608C97.5437 20.1227 97.7836 19.9321 98.0571 19.8581C98.1782 20.3469 97.7634 20.4747 97.3576 20.5196C96.2836 20.6362 95.4024 20.2998 95.4427 19.0711C95.5078 17.1563 98.5325 17.2101 98.2612 19.2415ZM97.6984 18.8312C97.7343 17.7572 96.1289 17.8626 96.0571 18.8312H97.6984Z" fill="black"/>
<path d="M89.2325 19.2408H87.0262C87.0665 19.9314 87.571 20.2341 88.2325 20.1646C88.5217 20.1332 88.7481 19.9471 89.0262 19.909C89.006 20.0099 89.0621 20.2408 89.0172 20.3103C88.8804 20.53 87.6809 20.5547 87.4208 20.5121C86.0889 20.2879 86.1338 17.8708 87.6136 17.7027C88.728 17.5749 89.3423 18.1085 89.2302 19.243L89.2325 19.2408ZM88.7212 18.8305C88.7212 17.7789 87.1338 17.8619 87.08 18.8305H88.7212Z" fill="black"/>
<path d="M66.2899 17.8046C66.4357 17.8696 66.7272 18.1275 66.8034 18.2665C66.8191 18.2934 66.8393 18.3763 66.855 18.4212C66.8864 18.5064 66.9491 18.7485 66.9581 18.8315C66.9716 18.9638 66.9491 19.1095 66.9581 19.2418H64.7518C64.7361 19.4212 64.7697 19.5983 64.855 19.7553C64.9469 19.9257 65.0231 19.9324 65.1621 20.0109C65.4267 20.1611 65.6935 20.2239 66.0097 20.1634C66.1128 20.1432 66.1285 20.0625 66.1375 20.0625C66.1913 20.049 66.281 20.0759 66.355 20.0512C66.4895 20.0042 66.5994 19.8988 66.7541 19.9077C66.7361 19.9593 66.7586 20.0916 66.7541 20.1634C66.7406 20.3293 66.7205 20.3382 66.5478 20.419C66.5164 20.4347 66.4648 20.4638 66.4447 20.4705C66.0254 20.6095 65.485 20.6073 65.0612 20.4952C64.976 20.4728 64.8729 20.3786 64.8034 20.3674C64.7877 20.3651 64.7675 20.3674 64.7518 20.3674C64.6733 20.2732 64.5209 20.1947 64.4446 20.1118C64.4177 20.0804 64.346 20.0154 64.3415 20.0086C63.8931 19.2082 64.281 17.8674 65.2653 17.6992C65.5209 17.6566 66.0545 17.6947 66.2922 17.8023L66.2899 17.8046ZM66.3931 18.8831C66.4379 17.7463 64.781 17.8584 64.7518 18.8831H66.3931Z" fill="black"/>
<path d="M79.945 19.9074C79.9697 19.932 80.0706 19.9186 80.0594 19.8423L80.9249 17.7593L81.4832 17.7526L79.9338 21.154C79.5953 21.6944 79.2432 21.8154 78.6087 21.7549V21.3446C79.2006 21.5262 79.6042 20.9724 79.6872 20.4522L78.5302 17.9096L78.5078 17.7549C78.6558 17.7773 79.0078 17.6966 79.0975 17.8064L79.945 19.9096V19.9074Z" fill="black"/>
<path d="M92.6682 20.4731H92.1547V19.0112C92.1547 18.9709 92.0875 18.648 92.0695 18.5852C91.8431 17.796 90.7265 17.9843 90.5762 18.6659C90.4507 19.2332 90.5426 19.8946 90.5134 20.4754H90V17.7556C90.0874 17.7691 90.4933 17.7354 90.5134 17.7556C90.5381 17.7803 90.4753 18.065 90.5403 18.065C90.9484 17.7175 91.4238 17.6143 91.9529 17.7287C92.2758 17.796 92.6682 18.2332 92.6682 18.5516V20.4754V20.4731Z" fill="black"/>
<path d="M63.9819 16.4173V16.8276C63.751 16.8276 63.5828 16.8029 63.3653 16.8792C63.0492 16.989 63.1209 17.4733 63.1075 17.7514C63.26 17.7514 63.4169 17.7514 63.5694 17.7514H63.7757C63.816 17.7873 63.8721 17.85 63.8788 17.8545V18.1617C63.742 18.1662 63.6053 18.155 63.4685 18.1617C63.3496 18.1662 63.2286 18.1572 63.1097 18.1617C63.103 18.8725 63.1187 19.5855 63.1142 20.2985C63.1142 20.3927 63.0604 20.4599 63.0582 20.4711C62.8945 20.5182 62.7129 20.433 62.5963 20.4196C62.5806 19.72 62.6165 19.016 62.5963 18.3164C62.5963 18.2648 62.5985 18.2133 62.5963 18.1617H62.0312V17.8545C62.0357 17.85 62.0738 17.7716 62.0828 17.7514H62.5963C62.538 17.3881 62.6434 17.1056 62.6994 16.776C62.8564 16.7469 62.8855 16.5899 63.0066 16.5204C63.2667 16.368 63.6815 16.4195 63.9819 16.4173Z" fill="black"/>
<path d="M70.7582 16.9828V17.7519H71.5788V18.1622H70.7582L70.8187 19.9739C70.9891 20.2699 71.303 20.1376 71.5788 20.1129C71.5676 20.2699 71.6506 20.4874 71.451 20.5232C71.3142 20.5479 70.8322 20.5389 70.6932 20.512C70.516 20.4762 70.2447 20.2026 70.2447 20.0367V18.1645H69.6797V17.7542H70.2447C70.2739 17.6196 70.2021 17.1734 70.2514 17.095C70.2783 17.0524 70.673 16.9604 70.7582 16.9851V16.9828Z" fill="black"/>
<path d="M93.2332 6.97691H91.6435C91.5247 6.45224 91.6234 5.91412 91.6435 5.38721H93.2086C93.2646 5.38721 93.2826 5.51277 93.287 5.56434C93.3408 6.01502 93.2355 6.52623 93.2332 6.97915V6.97691Z" fill="#1656A5"/>
<path d="M85.9383 17.8114C85.9809 17.8764 85.9227 18.1612 85.9451 18.2666C85.5931 18.1567 85.324 18.0715 84.9428 18.1096C83.7051 18.2329 83.7657 20.4146 85.3958 20.1522C85.5931 20.1209 85.7522 19.9774 85.9473 19.9594C86.028 20.3899 85.8554 20.4706 85.4541 20.5177C84.3105 20.6567 83.3531 20.1612 83.5594 18.8787C83.7074 17.9504 84.5684 17.6455 85.4114 17.6993C85.4944 17.7038 85.9204 17.7755 85.9428 17.8114H85.9383Z" fill="black"/>
<path d="M95.0811 17.7521C95.0699 17.8216 95.0991 18.0951 95.0811 18.1108C95.0542 18.1377 94.4287 18.1288 94.3188 18.1691C94.2359 18.2184 94.2538 18.9225 94.2583 19.0637C94.2628 19.205 94.3188 19.9651 94.3592 20.0279C94.5094 20.2678 95.0453 20.0772 95.0811 20.1131C95.0923 20.4472 95.1484 20.4942 94.7986 20.5234C94.3704 20.5593 93.8637 20.5391 93.7583 20.0256C93.7 19.7342 93.8121 18.2296 93.7471 18.1646C93.7291 18.1467 93.2426 18.14 93.2313 18.0839C93.2156 17.9875 93.2448 17.8574 93.2313 17.7543C93.3188 17.7409 93.7246 17.7745 93.7448 17.7543C93.8524 17.6467 93.4578 16.8485 94.2583 16.983L94.3098 17.7521H95.0789H95.0811Z" fill="black"/>
<path d="M77.5277 16.9835V17.7526H78.2968C78.2833 17.8243 78.3147 18.0934 78.2968 18.1113C78.2699 18.1382 77.6286 18.1741 77.5277 18.1629V19.8826C77.5277 20.3356 78.2654 20.08 78.2968 20.1136C78.2878 20.2167 78.3349 20.4409 78.2497 20.5015C78.1892 20.5441 77.5187 20.5374 77.4111 20.5127C77.3035 20.488 77.1219 20.3311 77.0726 20.2347C76.9156 19.9275 77.1264 18.2055 76.929 18.1607C76.8416 18.1405 76.4604 18.2033 76.4492 18.1337V17.7526C76.5367 17.7391 76.9425 17.7728 76.9627 17.7526C76.9918 17.7234 76.9268 17.136 76.9672 17.0911C76.9851 17.0687 77.447 16.9633 77.5255 16.9835H77.5277Z" fill="black"/>
<path d="M74.2994 16.4712H73.7344V20.4735H74.2994V16.4712Z" fill="black"/>
<path d="M67.6749 20.4736C67.6166 19.5879 67.7175 18.644 67.6749 17.7538H68.2399C68.2579 17.7718 68.0964 18.3301 68.2915 18.1641C68.2982 18.1574 68.305 18.0767 68.3431 18.0386C68.5314 17.8502 68.7489 17.7112 69.0314 17.709C69.0673 17.709 69.3588 17.7426 69.37 17.7561C69.3902 17.7762 69.3565 18.135 69.37 18.218C67.879 17.8592 68.305 19.4041 68.2444 20.2987C68.2377 20.3951 68.2556 20.4915 68.139 20.5274C68.0942 20.496 67.7736 20.5745 67.6771 20.4758L67.6749 20.4736Z" fill="black"/>
<path d="M102.152 3.14162C104.591 2.88601 104.694 6.72686 101.988 6.35466C100.358 6.13045 100.284 3.33669 102.152 3.14162ZM102.149 3.34566C100.412 3.59903 100.678 6.39278 102.542 6.19995C104.418 6.00713 104.104 3.0609 102.149 3.34566Z" fill="black"/>
<path d="M99.0312 17.7522C99.1187 17.7657 99.5245 17.732 99.5447 17.7522C99.5716 17.7791 99.5044 18.1603 99.5694 18.1626C99.7241 17.8262 100.018 17.6827 100.39 17.6962C100.762 17.7096 100.661 17.8173 100.673 18.1603C100.327 18.1469 100.081 18.028 99.8003 18.3038C99.7398 18.3643 99.5447 18.6827 99.5447 18.75V20.4697H99.0312V17.75V17.7522Z" fill="black"/>
<path d="M75.8385 17.7515H75.2734V20.4712H75.8385V17.7515Z" fill="black"/>
<path d="M72.7596 17.7515H72.2461V20.4712H72.7596V17.7515Z" fill="black"/>
<path d="M75.3627 16.5324C75.9748 16.3508 76.1004 17.1288 75.5085 17.0885C75.1093 17.0616 75.1564 16.5929 75.3627 16.5324Z" fill="black"/>
<path d="M72.7439 17.0222C72.6206 17.1455 72.2237 17.1186 72.1654 16.9056C72.0264 16.3921 72.7865 16.4078 72.8134 16.7508C72.8179 16.8181 72.7932 16.9751 72.7461 17.0222H72.7439Z" fill="black"/>
<path d="M101.85 3.91108C101.973 3.8909 102.15 3.87744 102.319 3.87744C102.579 3.87744 102.747 3.9178 102.866 4.00749C102.962 4.077 103.014 4.18462 103.014 4.30794C103.014 4.51646 102.857 4.65548 102.657 4.71153V4.71826C102.803 4.76086 102.89 4.87297 102.935 5.03665C102.998 5.25638 103.043 5.40885 103.081 5.47163H102.827C102.796 5.42679 102.756 5.29002 102.702 5.0927C102.646 4.87521 102.545 4.79225 102.323 4.78553H102.092V5.47163H101.848V3.91108H101.85ZM102.094 4.63306H102.343C102.603 4.63306 102.769 4.51422 102.769 4.3326C102.769 4.12856 102.592 4.03888 102.334 4.03664C102.215 4.03664 102.132 4.04561 102.092 4.05458V4.63082L102.094 4.63306Z" fill="black"/>
</svg>
